<?xml version="1.0" encoding="utf-8"?>
<!-- Generator: Adobe Illustrator 24.0.1, SVG Export Plug-In . SVG Version: 6.00 Build 0)  -->
<svg version="1.1" id="Layer_1" xmlns="http://www.w3.org/2000/svg" xmlns:xlink="http://www.w3.org/1999/xlink" x="0px" y="0px"
	 viewBox="300 1900 4400 1100" style="enable-background:new 0 0 5000 5000;" xml:space="preserve">
<style type="text/css">
	.st0{fill:#5C616D;}
</style>
<g>
	<path class="st0" d="M764.37,2688.63h22.43l71.46,107.04l71.46-107.04h22.43v196.16h-22.14V2725.9l-71.46,105.08h-1.13
		l-71.46-104.81v158.62h-21.58V2688.63z"/>
	<path class="st0" d="M1097.37,2688.63h141.81v20.18h-119.66v66.97h107.05v20.18h-107.05v68.66h121.06v20.18h-143.21V2688.63z"/>
	<path class="st0" d="M1374.87,2688.63h20.74l123.58,157.21v-157.21h21.58v196.16h-17.66l-126.66-160.86v160.86h-21.58V2688.63z"/>
	<path class="st0" d="M1737.86,2709.08H1672v-20.45h154.13v20.45h-65.86v175.71h-22.42V2709.08z"/>
	<path class="st0" d="M2004.7,2687.22h20.74l89.39,197.57h-23.82l-22.98-51.85h-106.77l-23.26,51.85h-22.7L2004.7,2687.22z
		 M2059.35,2813.05L2014.79,2713l-44.83,100.05H2059.35z"/>
	<path class="st0" d="M2243.26,2688.63h22.14v175.7h110.41v20.46h-132.55V2688.63z"/>
	<path class="st0" d="M2680.26,2688.63h22.14v87.15h113.22v-87.15h22.13v196.16h-22.13v-88.28H2702.4v88.28h-22.14V2688.63z"/>
	<path class="st0" d="M2982.99,2688.63h141.81v20.18h-119.66v66.97h107.05v20.18h-107.05v68.66h121.06v20.18h-143.21V2688.63z"/>
	<path class="st0" d="M3333.07,2687.22h20.74l89.39,197.57h-23.82l-22.98-51.85h-106.77l-23.26,51.85h-22.7L3333.07,2687.22z
		 M3387.72,2813.05L3343.16,2713l-44.83,100.05H3387.72z"/>
	<path class="st0" d="M3571.63,2688.63h22.14v175.7h110.41v20.46h-132.55V2688.63z"/>
	<path class="st0" d="M3858.66,2709.08h-65.86v-20.45h154.13v20.45h-65.86v175.71h-22.42V2709.08z"/>
	<path class="st0" d="M4078.14,2688.63h22.14v87.15h113.22v-87.15h22.13v196.16h-22.13v-88.28h-113.22v88.28h-22.14V2688.63z"/>
	<g>
		<path d="M312.33,2141.93h103.29l90.78,296.74l98.29-298h82.64l98.28,298l90.78-296.74h100.79l-149.62,441.36h-83.89l-98.92-286.74
			l-98.92,286.74h-83.88L312.33,2141.93z"/>
		<path d="M1052.92,2141.93h96.42v438.23h-96.42V2141.93z"/>
		<path d="M1258.9,2141.93h96.41v350.58h218.48v87.64H1258.9V2141.93z"/>
		<path d="M1646.4,2141.93h103.93l115.19,185.3l115.19-185.3h103.93v438.23h-95.78v-286.1l-123.33,187.18h-2.5l-122.09-185.31
			v284.23h-94.53V2141.93z"/>
		<path d="M2194.17,2141.93h96.42v438.23h-96.42V2141.93z"/>
		<path d="M2400.15,2141.93h88.89l205.34,269.82v-269.82h95.16v438.23h-82.01l-212.24-278.59v278.59h-95.15V2141.93z"/>
		<path d="M2875.31,2362.3v-1.26c0-124.58,97.03-226.63,229.76-226.63c78.87,0,126.46,21.28,172.16,60.1l-60.72,73.25
			c-33.81-28.18-63.86-44.45-114.57-44.45c-70.12,0-125.83,61.97-125.83,136.48v1.25c0,80.13,55.09,138.98,132.72,138.98
			c35.06,0,66.37-8.77,90.78-26.29v-62.61h-97.03v-83.26h190.32v190.32c-45.08,38.18-107.05,69.48-187.18,69.48
			C2969.21,2587.66,2875.31,2491.88,2875.31,2362.3z"/>
		<path d="M3481.31,2230.82h-133.35v-88.89h363.11v88.89h-133.35v349.34h-96.41V2230.82z"/>
		<path d="M4298.27,2141.93h88.9l205.34,269.82v-269.82h95.16v438.23h-82.01l-212.23-278.59v278.59h-95.17V2141.93z"/>
	</g>
	<path d="M3980.25,2134.41c-135.23,0-233.51,102.04-233.51,226.63v1.26c0,122.47,93.88,221.73,225.54,225.05
		c0.03-9.45,0.05-16.09,0.08-16.4c1.25-14.32,0.38-28.5-3.73-42.3c-3.37-11.31-11.33-18.43-23.09-18.62
		c-12.57-0.21-25.22,1.2-37.76,2.53c-7.39,0.79-14.63,2.96-21.98,4.21c-6.28,1.06-9.24-1.81-8.82-8.12c0.09-1.38,0.42-2.74,0.6-4.12
		c2.1-15.89-7.39-30.22-22.46-33.67c-4.42-1.01-5.76-3.46-4.34-7.6c0.45-1.31,0.94-2.65,1.68-3.8c9.46-14.82-2.61-32.69-13.61-37.54
		c-2.85-1.26-5.77-2.51-8.31-4.28c-4.55-3.16-4.61-5.63-0.72-9.55c6.98-7.02,14.28-13.76,20.79-21.19
		c2.95-3.36,5.36-7.88,6.26-12.23c2.92-14.25,2.87-28.74-0.06-42.98c-6.83-33.11-0.1-63.24,19.86-90.21
		c20.92-28.27,49.63-44.86,83.77-51.36c51.96-9.88,99.25,0.3,137.69,38.23c27.31,26.96,38.9,60.27,32.29,98.91
		c-3.52,20.56-11.88,39.52-19.56,58.68c-10.09,25.16-17.38,50.76-17.4,78.28c-0.02,30.71,3.17,61.07,7.38,91.37
		c68.4-39.64,111.67-112.05,111.67-194.56v-1.25C4212.52,2235.21,4115.48,2134.41,3980.25,2134.41z"/>
	<g>
		<path d="M3918.23,2292.59c24.91,37.08,46.2,39.4,82.98,43.62c36.78,4.21,42.46,50.06,42.46,50.06
			c16.38-31.47,31.97-46.35,54.54-53.91c9.83-3.29,17.1-16.17,18.23-32.42c-1.77-21.99-11.29-41.45-28.99-58.92
			c-25.88-25.54-56.12-37.96-92.47-37.96c-10.84,0-22.34,1.14-34.19,3.4c-3.73,0.71-7.35,1.57-10.9,2.54
			C3907.87,2222.84,3896.81,2260.71,3918.23,2292.59z"/>
	</g>
	<rect x="313.88" y="2774.96" class="st0" width="356.08" height="23.49"/>
	<rect x="4356.45" y="2774.96" class="st0" width="329.67" height="23.49"/>
</g>
</svg>
